<?xml version="1.0" encoding="UTF-8"?>
<svg width="1000px" height="660px" viewBox="0 0 1000 660" version="1.1" xmlns="http://www.w3.org/2000/svg" xmlns:xlink="http://www.w3.org/1999/xlink">
    <title>Chat</title>
    <g id="Chat" stroke="none" stroke-width="1" fill="none" fill-rule="evenodd">
        <path d="M999.795916,268.52541 C999.795916,192.425091 960.677298,122.847657 888.95983,72.8388764 C821.588876,26.0915378 732.485355,0 636.862065,0 C499.9469,0 381.504416,60.8802549 321.739859,151.11349 C308.70032,150.026342 295.66078,148.939195 281.534612,148.939195 C120.713625,147.852048 0.0978836513,238.085283 0.0978836513,357.671498 C0.0978836513,358.758645 0.0978836513,358.758645 0.0978836513,359.845792 C-3.16200124,469.647681 75.0752361,575.100979 223.943313,656.637035 C227.203198,658.81133 230.463082,659.898477 234.809596,659.898477 C239.156109,659.898477 243.502622,658.81133 247.849135,655.549888 C254.368905,651.201298 258.715418,642.504119 257.62879,633.806939 L250.022392,583.798159 C260.888675,584.885306 271.754958,584.885306 282.621241,584.885306 C354.338708,584.885306 419.536406,563.142358 468.434679,527.266493 C518.419581,549.009441 576.010881,560.968063 637.948694,560.968063 C655.334746,560.968063 672.720799,559.880916 689.020224,557.706621 L678.153941,632.719792 C677.067312,641.416971 680.327197,649.027003 687.933595,654.46274 C692.280108,656.637035 696.626622,658.81133 700.973135,658.81133 C704.23302,658.81133 708.579533,657.724182 711.839418,655.549888 C901.99937,551.183736 1005.22906,414.203163 999.795916,271.786852 C999.795916,270.699705 999.795916,269.612557 999.795916,268.52541 Z M227.138626,535.170413 C219.53839,534.082669 213.023902,536.258158 207.595162,540.609137 C202.166422,546.047861 199.994926,552.574329 201.080674,560.188542 L206.509414,593.908629 C99.0203598,525.380711 42.5614627,443.799855 45.8187068,360.04351 C45.8187068,357.86802 45.8187068,356.780276 45.8187068,355.692531 C45.8187068,263.234228 150.050517,190.35533 282.511775,190.35533 C409.544293,190.35533 512.690355,268.672951 512.690355,364.394489 C512.690355,460.116026 409.544293,538.433648 282.511775,538.433648 C264.054059,539.521392 245.596342,538.433648 227.138626,535.170413 Z" id="Shape" fill="#000000" fill-rule="nonzero"></path>
    </g>
</svg>